{"title":"The.Children.of.Huang.Shi.2008.SWESUB.DVDRip.XviD.-Zen_Bud","uid":5670364,"size":1463828480,"categoryP":"video","categoryS":"movies","magnet":"?xt=urn:btih:a2dd78afe8423dc8fbc2f6bdd946c3fc0dace759&amp;dn=The.Children.of.Huang.Shi.2008.SWESUB.DVDRip.XviD.-Zen_Bud&amp;tr=udp%3A%2F%2Ftracker.openbittorrent.com%3A80&amp;tr=udp%3A%2F%2Fopen.demonii.com%3A1337&amp;tr=udp%3A%2F%2Ftracker.coppersurfer.tk%3A6969&amp;tr=udp%3A%2F%2Fexodus.desync.com%3A6969","seeders":0,"leechers":1,"uploader":"Zen_Bud","files":-1,"time":1278319490,"description":"General\nComplete name                    : The.Children.of.Huang.Shi.avi\nFormat                           : AVI\nFile size                        : 1.36 GiB\nDuration                         : 1h 47mn\nOverall bit rate                 : 1 810 Kbps\n\nVideo\n\nFormat                           : MPEG-4 Visual\nCodec ID/Hint                    : XviD\nDuration                         : 1h 47mn\nBit rate                         : 1 672 Kbps\nWidth                            : 712 pixels\nHeight                           : 398 pixels\nDisplay aspect ratio             : 16:9\nStream size                      : 1.26 GiB (92%)\nWriting library                  : XviD 1.2.1 (UTC 2008-12-04)\n\nAudio\n\nFormat                           : MPEG Audio\nCodec ID/Hint                    : MP3\nDuration                         : 1h 47mn\nBit rate                         : 128 Kbps\nChannel(s)                       : 2 channels\nSampling rate                    : 48.0 KHz\nStream size                      : 98.7 MiB (7%)\nWriting library                  : LAME3.97 \n\n\n","torrent":{"xt":"urn:btih:a2dd78afe8423dc8fbc2f6bdd946c3fc0dace759","amp;dn":"The.Children.of.Huang.Shi.2008.SWESUB.DVDRip.XviD.-Zen_Bud","amp;tr":["udp%3A%2F%2Ftracker.openbittorrent.com%3A80","udp%3A%2F%2Fopen.demonii.com%3A1337","udp%3A%2F%2Ftracker.coppersurfer.tk%3A6969","udp%3A%2F%2Fexodus.desync.com%3A6969"],"infoHash":"a2dd78afe8423dc8fbc2f6bdd946c3fc0dace759","infoHashBuffer":{"type":"Buffer","data":[162,221,120,175,232,66,61,200,251,194,246,189,217,70,195,252,13,172,231,89]},"announce":[],"urlList":[]}}